<svg xmlns="http://www.w3.org/2000/svg" xmlns:xlink="http://www.w3.org/1999/xlink" viewBox="0 0 1050 600"><defs><style>.cls-1{fill:none;}.cls-2{fill:#cceaed;}.cls-3{clip-path:url(#clip-path);}.cls-13,.cls-15,.cls-4{fill:#0097a3;}.cls-5{fill:#66c1c8;}.cls-6{fill:#a3dade;}.cls-7{fill:#00717a;opacity:0.51;}.cls-8{fill:#fff;}.cls-9{clip-path:url(#clip-path-2);}.cls-10,.cls-12,.cls-14{fill:#956b9a;}.cls-11{clip-path:url(#clip-path-3);}.cls-12,.cls-13,.cls-14,.cls-15,.cls-16{font-size:161.84px;font-family:MyriadPro-Bold, Myriad Pro;font-weight:700;letter-spacing:-0.06em;}.cls-12,.cls-13{stroke:#000;stroke-miterlimit:10;stroke-width:4px;}.cls-17{letter-spacing:-0.07em;}.cls-18{clip-path:url(#clip-path-4);}.cls-19{fill:#bfa6c2;}</style><clipPath id="clip-path"><path class="cls-1" d="M443.71,526.66c12.95-28.1-5.31-108-37.42-135.18a172.91,172.91,0,0,0-30-20.15l.37-.37a216.54,216.54,0,0,0,16.16-19.15C454.67,269.42,418.39,85.38,347.37,32s-161.75,9.11-223.64,91.49C73.8,190,86.54,287.61,130.61,350.89c0,0-35.56,23.66-56.82,60s-12,117.72,9.53,139.94,35.07-3.83,47-33.09c10.32-25.32-2.19-72.06,9.74-101.32a64.42,64.42,0,0,1,23.74-29.53l.87.68c-5.6,13.58-15.44,41.65-15.73,71.73-.41,42.09,48,108.14,77.76,116.73S255.22,555.29,251,524c-3.62-27.1-37.68-61.46-41.86-92.78a66.69,66.69,0,0,1,0-18.23,147.07,147.07,0,0,0,73.14,8.76,66.18,66.18,0,0,1,6,20.41c4,31.34-20.08,73.3-16.6,100.42,4,31.34,10.41,60,36.92,44s56.36-92.23,45.14-132.8c-4.87-17.62-13-33.61-20.56-46.08a67,67,0,0,1,12.38,11c21,23.65,24.66,71.89,42.79,92.36C409.35,534.68,430.76,554.76,443.71,526.66Z"/></clipPath><clipPath id="clip-path-2"><circle class="cls-1" cx="229.43" cy="264.65" r="53.88"/></clipPath><clipPath id="clip-path-3"><circle class="cls-1" cx="390.15" cy="274.13" r="40.85"/></clipPath><clipPath id="clip-path-4"><path class="cls-1" d="M450.88,286.49h24.6V207.35h-24.6ZM463,197.64c8.09,0,13.27-5.5,13.27-12.3-.16-7.12-5.18-12.46-13.11-12.46s-13.11,5.34-12.95,12.46C450.07,192.14,455.25,197.64,463,197.64Zm58.72,159.49c0-18.61-8.42-34.15-34.79-34.15-14.4,0-25.25,3.88-30.75,7l4.53,15.86a44.5,44.5,0,0,1,21.85-6c12.14,0,14.4,6,14.4,10.2v1.13c-28-.16-46.45,9.71-46.45,30.26,0,12.62,9.55,24.28,25.57,24.28,9.39,0,17.48-3.4,22.66-9.71h.49l1.46,7.93h22.17c-.81-4.37-1.13-11.65-1.13-19.26Zm-24,18a17.64,17.64,0,0,1-.49,4.21,13.44,13.44,0,0,1-12.79,9.06c-5.5,0-9.71-3.07-9.71-9.39,0-9.55,10-12.62,23-12.46ZM578.22,323a29,29,0,0,0-24.44,12.62h-.49l-1.13-10.84H530.8c.32,7,.65,15.37.65,25.25V403.9H556V358.26a16.91,16.91,0,0,1,1-6.15c1.62-4.53,5.66-9.22,12.46-9.22,8.9,0,12.46,7,12.46,17.15V403.9h24.6V357C606.54,333.67,594.4,323,578.22,323ZM513,184.7l-24.11,5.5v17.15H478.4v18.13h10.52v32.37c0,11.17,2.26,18.77,6.8,23.47,3.88,4,10.52,6.8,18.45,6.8,7,0,12.79-.81,16-2.1L530,267.39a40.21,40.21,0,0,1-7.28.65c-7.44,0-9.71-4.37-9.71-13.92V225.48h17.64V207.35H513Z"/></clipPath></defs><title>Artboard 11 website</title><g id="Layer_7" data-name="Layer 7"><path class="cls-2" d="M450,532.09c13.5-29.16-5-111.78-38-139.83A176.42,176.42,0,0,0,381,371.53l.38-.39a227.05,227.05,0,0,0,16.78-19.91c64.31-85.6,27.67-276-45.45-331S185.64,30.43,121.33,116c-51.88,69.05-39.16,170.12,6.07,235.46,0,0-36.84,24.67-59,62.39s-12.93,122,9.21,144.88,36.24-4.13,48.69-34.49c10.78-26.27-1.93-74.62,10.52-105A67.52,67.52,0,0,1,161.5,388.6l.9.7c-5.84,14.09-16.14,43.21-16.58,74.36-.62,43.6,49.14,111.78,79.8,120.54s29.57-21.61,25.4-54c-3.61-28.05-38.65-63.48-42.82-95.9a69.25,69.25,0,0,1,.12-18.88,151.11,151.11,0,0,0,75.51,8.74,68.18,68.18,0,0,1,6.08,21.11c4,32.44-21.07,76-17.61,104.08,4,32.44,10.48,62.08,37.94,45.45S368.88,499,357.47,457c-5-18.22-13.24-34.75-21-47.63a68.42,68.42,0,0,1,12.74,11.29C370.73,445.1,374.33,495,393,516.15,414.51,540.55,436.53,561.25,450,532.09Z"/><circle class="cls-2" cx="156.25" cy="103.01" r="82.03"/><circle class="cls-2" cx="421.63" cy="53.15" r="16.08"/><circle class="cls-2" cx="395.9" cy="358.74" r="94.89"/><g class="cls-3"><path class="cls-4" d="M443.71,526.66c12.95-28.1-5.31-108-37.42-135.18a172.91,172.91,0,0,0-30-20.15l.37-.37a216.54,216.54,0,0,0,16.16-19.15C454.67,269.42,418.39,85.38,347.37,32s-161.75,9.11-223.64,91.49C73.8,190,86.54,287.61,130.61,350.89c0,0-35.56,23.66-56.82,60s-12,117.72,9.53,139.94,35.07-3.83,47-33.09c10.32-25.32-2.19-72.06,9.74-101.32a64.42,64.42,0,0,1,23.74-29.53l.87.68c-5.6,13.58-15.44,41.65-15.73,71.73-.41,42.09,48,108.14,77.76,116.73S255.22,555.29,251,524c-3.62-27.1-37.68-61.46-41.86-92.78a66.69,66.69,0,0,1,0-18.23,147.07,147.07,0,0,0,73.14,8.76,66.18,66.18,0,0,1,6,20.41c4,31.34-20.08,73.3-16.6,100.42,4,31.34,10.41,60,36.92,44s56.36-92.23,45.14-132.8c-4.87-17.62-13-33.61-20.56-46.08a67,67,0,0,1,12.38,11c21,23.65,24.66,71.89,42.79,92.36C409.35,534.68,430.76,554.76,443.71,526.66Z"/><path class="cls-5" d="M396,347.29c-68.25,81-220.45,21.11-238.95-50.47-9.82-38,8-82,35.38-101.33s8-19.3,8-64.34S256.77,8.92,328.34,35.46c66,24.45,92.29,83.72,90.29,93.39,0,0,37,168.38-22.63,218.44"/><path class="cls-5" d="M164.29,386.08c-.1-.57-22.73-9.22-33.78,6.43-10.57,15-37,24.13-37,75.59,0,22.75,12.87,45,9.65,57.9s-14.34,24.41-23.25,17-25-7.38-18.57,11.92,64.34,33.78,70.77,4.83,6.25-59.52,8-80.42C141.87,459.43,145,410.21,164.29,386.08Z"/><path class="cls-5" d="M223.8,423.08,201.28,407s-14.48-8-19.3,0-9.65,27.34,0,51.47,41.82,45,49.86,67.55c4.33,12.12,3.22,37-4.83,41.82s-14.48,11.26,1.61,17.69,32.17-4.83,32.17-4.83V505.11Z"/><path class="cls-5" d="M281.7,421.47s19.3-8,25.73,0,20.91,30.56,6.43,57.9-27.34,54.69-27.34,70.77-8,20.91,4.83,49.86l-20.91-12.87-9.65-65.07Z"/><path class="cls-5" d="M333.17,407a36.16,36.16,0,0,1,30.56,6.43c14.48,11.26,37,90.07,45,94.89s6.43,32.17,35.38,17.69,37,17.69,25.73,30.56-90.07,12.87-90.07,12.87l-9.65-64.34-8-40.21S347.64,410.21,333.17,407Z"/><circle class="cls-5" cx="157.05" cy="132.76" r="23.32"/><circle class="cls-5" cx="182.79" cy="100.6" r="10.45"/><circle class="cls-6" cx="380.62" cy="156.89" r="23.32"/><circle class="cls-6" cx="369.36" cy="110.25" r="10.45"/></g><path class="cls-7" d="M179.66,386.9c-5.81-2.56-9.56,6.8-4,9.86,28,15.36,66.61,31.06,98.79,23.91,22.09-4.91,37.63-10.05,48.39-14.54,5-2.09,2.73-11-2.34-9C273.66,415,239.88,413.43,179.66,386.9Z"/><path d="M441.21,525.51a41.12,41.12,0,0,0,3-10.21c.36-1.78.53-3.62.77-5.44s.33-3.68.35-5.54c.18-3.7.05-7.44-.1-11.17s-.54-7.47-1-11.19a202.71,202.71,0,0,0-10.63-43.79,166.83,166.83,0,0,0-9.1-20.65,102.29,102.29,0,0,0-12.46-18.71c-.58-.73-1.23-1.41-1.87-2.09s-1.26-1.38-1.93-2c-1.37-1.27-2.7-2.57-4.16-3.78-2.88-2.44-5.86-4.76-8.92-7A185.65,185.65,0,0,0,376,371.77h0l-.57-.31.45-.47a205.47,205.47,0,0,0,17.48-21.21,132.48,132.48,0,0,0,13.39-23.87c7.29-16.79,11.65-34.74,14-52.87a292.29,292.29,0,0,0,1.66-54.81,357.5,357.5,0,0,0-7.55-54.34A334.63,334.63,0,0,0,399,111.45a262.29,262.29,0,0,0-11.38-24.88,209.76,209.76,0,0,0-14.11-23.35A146.16,146.16,0,0,0,356,42.5a108.67,108.67,0,0,0-10.25-8.75l-5.55-3.83c-.9-.67-1.91-1.18-2.87-1.76l-2.91-1.7a92.35,92.35,0,0,0-25-9.54A94.12,94.12,0,0,0,282.7,15a114.14,114.14,0,0,0-26.45,5.07,162.37,162.37,0,0,0-25.07,10.28c-2,1.06-4,2.05-6,3.17l-5.9,3.39c-3.86,2.39-7.74,4.76-11.46,7.37a259.48,259.48,0,0,0-21.72,16.53c-7,5.87-13.73,12-20.18,18.46l-2.44,2.4-2.38,2.46-4.74,4.94c-3.08,3.37-6.21,6.7-9.18,10.16s-5.94,6.94-8.88,10.43L134,115l-2.14,2.67-2.09,2.72c-1.38,1.82-2.81,3.62-4.14,5.44l-3.92,5.51-3.64,5.7c-1.19,1.91-2.25,3.91-3.38,5.86a163.75,163.75,0,0,0-17.53,51,197.93,197.93,0,0,0-1.4,54.16,216.84,216.84,0,0,0,4.59,26.81A244.89,244.89,0,0,0,108.15,301q4.58,12.82,10.32,25.22c3.83,8.26,8,16.37,12.55,24.4l.27.49-.41.22h0c-3.73,2.66-7.34,5.53-10.85,8.5-1.77,1.46-3.48,3-5.22,4.5s-3.42,3.07-5.07,4.67A218.54,218.54,0,0,0,91,389.08a169.4,169.4,0,0,0-15.68,22.46c-4.4,7.83-7.08,16.59-8.8,25.5-.9,4.45-1.44,9-1.91,13.51s-.65,9.1-.73,13.66a207.25,207.25,0,0,0,1.36,27.34,189.55,189.55,0,0,0,5.06,26.84c2.38,8.74,5.46,17.4,10.15,24.9l.88,1.4,1,1.31c.33.43.63.89,1,1.3l1.06,1.2a36.07,36.07,0,0,0,4.76,4.42c3.37,2.61,7.28,4.37,11.06,3.83s7.28-3.13,10.16-6.33a62.59,62.59,0,0,0,7.53-11c2.19-4,4.18-8.05,6.06-12.21q1.4-3.13,2.75-6.29c.9-2.11,1.81-4.26,2.53-6.27,2.79-8.38,3.36-17.58,3.6-26.69.43-18.28-1.16-36.91,1.65-55.45,2.46-18.64,13.35-36.06,29.07-46.06h0l.3-.2.29.23.87.68h0l.29.23-.14.36a228.57,228.57,0,0,0-12.88,49.65c-.54,4.23-1,8.48-1.23,12.73l-.17,3.19c0,1.06,0,2.13-.07,3.19s-.06,2.13,0,3.18l.12,3.12a80.33,80.33,0,0,0,1.92,12.43,111.45,111.45,0,0,0,3.67,12.13c5.8,15.93,14.36,30.87,24.28,44.67A190.34,190.34,0,0,0,197,551.7,116.62,116.62,0,0,0,216,568.15a45.5,45.5,0,0,0,10.92,5.4c.95.32,2,.53,2.94.8s2,.43,3,.52a20.9,20.9,0,0,0,5.77.06,11.6,11.6,0,0,0,5-1.82,12.06,12.06,0,0,0,3.61-3.94,29.1,29.1,0,0,0,3.29-11.36,83.1,83.1,0,0,0,.32-12.55c-.17-4.23-.52-8.48-1-12.72l-.73-6.38c-.13-1.07-.25-2.14-.42-3.12s-.36-2-.59-3a67.2,67.2,0,0,0-4.07-11.84,237.42,237.42,0,0,0-12-22.62c-4.3-7.44-8.74-14.85-12.72-22.56s-7.59-15.67-9.7-24.17a64.67,64.67,0,0,1-1-25.94h0l.09-.58.58.18c5.91,1.84,11.85,3.51,17.85,4.89a182.06,182.06,0,0,0,18.15,3.21,170.76,170.76,0,0,0,18.38,1.27c6.15.1,12.31-.15,18.49-.63h0l.37,0,.15.3a65.67,65.67,0,0,1,6.86,23.75c.7,8.33-.29,16.65-1.81,24.75s-3.67,16.08-5.82,24-4.41,15.76-6.12,23.68-3,15.94-2.16,23.69a225.47,225.47,0,0,0,4.11,23.91,72.7,72.7,0,0,0,3.59,11.34,33.63,33.63,0,0,0,2.63,5.12,18.15,18.15,0,0,0,3.49,4.2,11.56,11.56,0,0,0,4.44,2.46,12.44,12.44,0,0,0,5.13.3,29.11,29.11,0,0,0,10.46-4.16,42.2,42.2,0,0,0,8.84-7.53,88.65,88.65,0,0,0,7.44-9.36c2.26-3.32,4.43-6.71,6.39-10.24s3.86-7.1,5.61-10.74a206.86,206.86,0,0,0,15.56-46,144.58,144.58,0,0,0,3.07-24c.13-2,0-4,.07-6l-.14-3-.08-1.51-.15-1.5a65.88,65.88,0,0,0-2.14-11.82C347.82,437.09,341,422.15,332.81,408l0,0-1-1.82,1.75,1.14a64.86,64.86,0,0,1,17.41,16.64,107.74,107.74,0,0,1,11.31,21.34c6.15,14.85,10.51,30.32,16.65,44.83a101.37,101.37,0,0,0,5.15,10.5,49.24,49.24,0,0,0,6.68,9.26,213.06,213.06,0,0,0,16.67,16.74,70.82,70.82,0,0,0,9.17,6.89,24.91,24.91,0,0,0,9.79,3.82,11.18,11.18,0,0,0,8.73-3A29,29,0,0,0,441.21,525.51Zm5,2.3A34.36,34.36,0,0,1,439,538.63a18.28,18.28,0,0,1-6,3.76,16.45,16.45,0,0,1-7.17.88,28.85,28.85,0,0,1-12.34-4.76,71.22,71.22,0,0,1-9.78-7.7A217.88,217.88,0,0,1,387,513.19c-.65-.73-1.33-1.62-2-2.42s-1.23-1.7-1.84-2.55-1.13-1.75-1.67-2.64-1-1.78-1.53-2.69a105.77,105.77,0,0,1-5.1-11.12c-3-7.53-5.35-15.19-7.74-22.81s-4.75-15.21-7.53-22.63a109.37,109.37,0,0,0-10.3-21.27,64.69,64.69,0,0,0-16.35-16.93l.71-.67,0,0a180.53,180.53,0,0,1,21,44.54,65.88,65.88,0,0,1,2.53,12.25l.19,1.55.12,1.56.21,3.12c0,2.08.15,4.16.07,6.23a140.7,140.7,0,0,1-2.68,24.69,202.68,202.68,0,0,1-15.29,47.09,150.88,150.88,0,0,1-12.22,21.7,93.11,93.11,0,0,1-7.81,9.88,46.63,46.63,0,0,1-9.79,8.36,33.36,33.36,0,0,1-12.23,4.82,17.08,17.08,0,0,1-7-.46,16.18,16.18,0,0,1-6.2-3.45,22.67,22.67,0,0,1-4.33-5.21,38.14,38.14,0,0,1-3-5.8,77.08,77.08,0,0,1-3.78-12.06c-1-4.06-1.71-8.14-2.34-12.22s-1.19-8.11-1.64-12.3a59.2,59.2,0,0,1,.29-12.71,112.07,112.07,0,0,1,2.26-12.29c1.9-8.06,4.3-15.92,6.61-23.77s4.64-15.66,6.37-23.6,2.95-16,2.56-24a66.83,66.83,0,0,0-5.71-23.45l.52.28h0a111.85,111.85,0,0,1-18.61,2,127.07,127.07,0,0,1-37.15-4.49A116.45,116.45,0,0,1,209,413.42l.67-.4h0a65,65,0,0,0-.25,12.77,61.5,61.5,0,0,0,2.22,12.51,114.87,114.87,0,0,0,10.24,23.36c4.15,7.48,8.69,14.77,13.19,22.12a221.18,221.18,0,0,1,12.6,22.78A71.18,71.18,0,0,1,252.22,519c.26,1.09.53,2.18.7,3.31s.35,2.2.5,3.26q.45,3.21.82,6.44c.51,4.31.91,8.64,1.13,13a87.52,87.52,0,0,1-.22,13.24,33.53,33.53,0,0,1-3.79,13.28,15.92,15.92,0,0,1-12,8.11,25.66,25.66,0,0,1-7.1,0c-1.16-.12-2.26-.39-3.39-.59s-2.19-.52-3.29-.88a50.19,50.19,0,0,1-12.19-5.94,115.6,115.6,0,0,1-20-17.18,195.17,195.17,0,0,1-16.56-20.22A202,202,0,0,1,163,512.69c-1-1.93-2-3.85-3-5.82l-1.43-2.94-1.35-3c-.92-2-1.7-4-2.56-6s-1.58-4.07-2.25-6.16a115.52,115.52,0,0,1-3.56-12.65,84.12,84.12,0,0,1-1.76-13.1l0-3.33c0-1.1.08-2.18.12-3.27s.08-2.18.16-3.26l.26-3.25c.35-4.34.93-8.65,1.59-12.94a209.91,209.91,0,0,1,15-49.58l.15.58h0l-.88-.69.59,0h0a64,64,0,0,0-18.3,20,67.54,67.54,0,0,0-5.62,12.35,76,76,0,0,0-2.88,13.26,183.65,183.65,0,0,0-1.07,27.39c.15,9.19.58,18.41.52,27.71,0,4.65-.19,9.32-.7,14a69.16,69.16,0,0,1-2.82,14c-.82,2.33-1.69,4.44-2.58,6.58s-1.79,4.28-2.73,6.41c-1.87,4.26-3.89,8.48-6.16,12.6a66.87,66.87,0,0,1-8.07,11.81,30,30,0,0,1-5.59,5,17.5,17.5,0,0,1-7.32,2.88,16.2,16.2,0,0,1-7.89-1,24.83,24.83,0,0,1-6.58-3.75,40.53,40.53,0,0,1-5.35-5l-1.22-1.39c-.4-.47-.73-1-1.1-1.46l-1.08-1.47-1-1.53c-5.07-8.19-8.18-17.15-10.62-26.17a183.44,183.44,0,0,1-5-27.52,211.4,211.4,0,0,1-1.14-27.91,160,160,0,0,1,3.09-27.8c1.9-9.15,4.79-18.23,9.62-26.42a167.28,167.28,0,0,1,16.43-22.54,210.89,210.89,0,0,1,19.51-19.81c1.71-1.56,3.5-3,5.25-4.55s3.56-3,5.4-4.37c3.65-2.86,7.36-5.6,11.24-8.16h0l-.13.71a148.32,148.32,0,0,1-15.79-22.89A181.81,181.81,0,0,1,102.6,303a222.77,222.77,0,0,1-12.77-54.27A203.84,203.84,0,0,1,91.34,193a169.61,169.61,0,0,1,18.23-52.83c1.18-2,2.28-4.09,3.52-6.08l3.79-5.92,4.08-5.72c1.38-1.88,2.81-3.68,4.21-5.53l2.12-2.75,2.18-2.7,4.37-5.4c3-3.53,5.93-7.1,9-10.55s6.21-6.87,9.35-10.27l4.83-5,2.43-2.49L162,75.29c6.57-6.53,13.46-12.75,20.58-18.7A264.93,264.93,0,0,1,204.75,39.8c3.82-2.65,7.8-5.07,11.76-7.51l6.07-3.46c2-1.14,4.13-2.16,6.19-3.24a167.62,167.62,0,0,1,25.95-10.53,118.71,118.71,0,0,1,27.64-5.14,99.14,99.14,0,0,1,28.11,2.17,97.21,97.21,0,0,1,26.27,10.19l3,1.8c1,.61,2.05,1.15,3,1.86l5.77,4a113.31,113.31,0,0,1,10.66,9.2,150.66,150.66,0,0,1,17.92,21.48,210.82,210.82,0,0,1,14.23,23.94A266.43,266.43,0,0,1,402.72,110a338.42,338.42,0,0,1,15.67,53.16,354.27,354.27,0,0,1,7.05,54.92,295,295,0,0,1-2.28,55.3c-2.58,18.28-7.18,36.38-14.74,53.28a133.22,133.22,0,0,1-13.91,24,206.64,206.64,0,0,1-17.9,21.07l-.13-.79h0a187,187,0,0,1,19.63,11.72c3.14,2.17,6.23,4.43,9.21,6.82,1.5,1.17,2.93,2.48,4.38,3.76.71.65,1.37,1.36,2.05,2s1.36,1.37,2,2.1A104.4,104.4,0,0,1,427,416.19,169.87,169.87,0,0,1,436.73,437a206.53,206.53,0,0,1,11.88,44.37,141.54,141.54,0,0,1,1.71,23.09c0,1.94-.15,3.89-.23,5.84s-.34,3.91-.69,5.86A46.27,46.27,0,0,1,446.2,527.81Z"/><path d="M297.54,291.19s4.85,16.64,17.33,15.25a12.13,12.13,0,0,1,11.78,0c6.24,3.47,9.7,2.08,14.56-4.16,0,0-3.47,10.4-11.09,10.4-4.16,0-3-3.94-10.4-2.08C311.4,312.68,295.46,312,297.54,291.19Z"/><circle cx="229.43" cy="264.65" r="60.31"/><circle class="cls-8" cx="229.43" cy="264.65" r="53.88"/><g class="cls-9"><ellipse class="cls-10" cx="230.23" cy="242.13" rx="46.64" ry="60.31"/><ellipse cx="231.04" cy="244.55" rx="37.8" ry="45.03"/><circle class="cls-8" cx="197.26" cy="232.48" r="24.93"/><circle class="cls-8" cx="254.36" cy="270.28" r="6.43"/></g><path d="M283.31,237.55s-13.29-30-46-33.22-64.93,27.34-73,22.52,12.87,16.08,12.87,16.08,28.39-38.6,59.23-32.17S278.48,222.52,283.31,237.55Z"/><circle cx="390.15" cy="274.13" r="45.72"/><circle class="cls-8" cx="390.15" cy="274.13" r="40.85"/><g class="cls-11"><ellipse class="cls-10" cx="389.54" cy="257.06" rx="35.36" ry="45.72"/><ellipse cx="388.93" cy="258.89" rx="28.65" ry="34.14"/><circle class="cls-8" cx="367.9" cy="246.53" r="18.9"/><circle class="cls-8" cx="400.2" cy="273.57" r="4.88"/></g><path d="M349.31,253.59s10.07-22.74,34.91-25.18,49.22,20.73,55.32,17.07-9.75,12.19-9.75,12.19-21.52-29.26-44.9-24.39S353,242.19,349.31,253.59Z"/><text class="cls-12" transform="translate(441.01 286.49)">it</text><text class="cls-13" transform="translate(445.84 402.29)">an</text><text class="cls-14" transform="translate(441.01 286.49)">it</text><text class="cls-15" transform="translate(445.84 402.29)">an</text><text class="cls-16" transform="translate(542.34 286.49)">ta<tspan class="cls-17" x="125.43" y="0">k</tspan><tspan x="201.17" y="0">es</tspan></text><path d="M619.76,407.12V328h24.6v79.14Z"/><path d="M654.23,385.59c4.53,2.75,13.92,6,21.2,6,7.44,0,10.52-2.59,10.52-6.64s-2.43-6-11.65-9.06c-16.34-5.5-22.66-14.4-22.5-23.79,0-14.73,12.62-25.89,32.21-25.89,9.22,0,17.48,2.1,22.33,4.53l-4.37,17a38.84,38.84,0,0,0-17.15-4.53c-6,0-9.39,2.43-9.39,6.47,0,3.72,3.08,5.66,12.78,9.06,15.05,5.18,21.36,12.78,21.52,24.44,0,14.73-11.65,25.57-34.31,25.57-10.36,0-19.58-2.26-25.57-5.5Z"/><path d="M714.92,292.22h24.6v114.9h-24.6Z"/><path d="M794.71,407.12l-1.46-7.93h-.49c-5.18,6.31-13.27,9.71-22.66,9.71-16,0-25.57-11.65-25.57-24.28,0-20.55,18.45-30.42,46.45-30.26v-1.13c0-4.21-2.27-10.2-14.4-10.2a44.5,44.5,0,0,0-21.85,6l-4.53-15.86c5.5-3.07,16.34-7,30.75-7,26.38,0,34.79,15.54,34.79,34.15v27.51c0,7.61.32,14.89,1.13,19.26Zm-2.91-37.38c-12.95-.16-23,2.91-23,12.46,0,6.31,4.21,9.39,9.71,9.39a13.44,13.44,0,0,0,12.79-9.06,17.64,17.64,0,0,0,.49-4.21Z"/><path d="M825.46,353.23c0-9.87-.32-18.29-.65-25.25h21.36l1.13,10.84h.49a29,29,0,0,1,24.44-12.62c16.18,0,28.32,10.68,28.32,34v46.93H876V363.26c0-10.19-3.56-17.15-12.46-17.15-6.8,0-10.84,4.69-12.46,9.22a16.91,16.91,0,0,0-1,6.15v45.64h-24.6Z"/><path d="M987.3,292.22v91.27c0,8.9.32,18.29.65,23.63H966.1L965,395.47h-.32c-5,8.9-14.56,13.43-24.76,13.43-18.77,0-33.82-16-33.82-40.62-.16-26.7,16.51-42.07,35.44-42.07,9.71,0,17.32,3.4,20.88,8.9h.32V292.22Zm-24.6,69.26a39.68,39.68,0,0,0-.32-4.37c-1.46-6.64-6.8-12.14-14.4-12.14-11.17,0-17,10-17,22.5,0,13.43,6.63,21.85,16.83,21.85A14.4,14.4,0,0,0,962,377.5a21,21,0,0,0,.65-5.67Z"/><g class="cls-18"><path class="cls-19" d="M421.69,253s75.59-32.17,106.15-16.08,0-83.64,0-83.64H441Z"/><path class="cls-5" d="M465.11,301.21l-14.48,16.08-4.83,61.12s139.93-33.78,167.27-12.87l-9.65-48.25H469.94Z"/></g><circle class="cls-5" cx="512.56" cy="388.87" r="5.63"/><circle class="cls-5" cx="598.61" cy="362.33" r="6.43"/><circle class="cls-19" cx="497.28" cy="233.66" r="8.04"/><path d="M619.35,311.16c0-7.33,5-12.62,12.22-12.62s12.08,5.16,12.08,12.62c0,7.19-4.89,12.49-12.22,12.49C624.37,323.65,619.35,318.36,619.35,311.16Z"/></g></svg>